Coordinates
version=1
nRows=33
nColumns=38
inDegrees=no

Units are S.I. units (second, meters, Newtons, ...)
If the header above contains a line with 'inDegrees', this indicates whether rotational values are in degrees (yes) or radians (no).

endheader
time	pelvis_tilt	pelvis_list	pelvis_rotation	pelvis_tx	pelvis_ty	pelvis_tz	hip_flexion_r	hip_adduction_r	hip_rotation_r	knee_angle_r	ankle_angle_r	subtalar_angle_r	mtp_angle_r	hip_flexion_l	hip_adduction_l	hip_rotation_l	knee_angle_l	ankle_angle_l	subtalar_angle_l	mtp_angle_l	lumbar_extension	lumbar_bending	lumbar_rotation	arm_flex_r	arm_add_r	arm_rot_r	elbow_flex_r	pro_sup_r	wrist_flex_r	wrist_dev_r	arm_flex_l	arm_add_l	arm_rot_l	elbow_flex_l	pro_sup_l	wrist_flex_l	wrist_dev_l
0.66	2.84091	1.36375	-1.16209	0.763422	-0.0601041	0.952757	0.31293	-0.0558969	-0.144031	0.836635	-0.291675	0	0	-0.307384	-0.0413952	-0.124641	0.19759	-0.125002	0	0	-0.439895	0.137704	-0.035102	-0.0449297	-0.645566	0.893601	0.853377	0.537394	0	0	-0.0764854	-0.285501	0.34744	0.644115	1.10003	0	0
0.67	2.83557	1.36808	-1.15839	0.763427	-0.0524005	0.951513	0.318966	-0.0551333	-0.150117	0.792298	-0.280238	0	0	-0.31278	-0.0402797	-0.124279	0.196396	-0.118473	0	0	-0.435833	0.136498	-0.0318988	-0.0448491	-0.644993	0.894267	0.852512	0.533326	0	0	-0.0714092	-0.28615	0.355174	0.640156	1.09566	0	0
0.68	2.82945	1.37268	-1.15357	0.763485	-0.0445974	0.950158	0.322265	-0.0531212	-0.156698	0.744589	-0.266436	0	0	-0.317374	-0.0395223	-0.124638	0.196691	-0.111786	0	0	-0.431145	0.135361	-0.0292198	-0.044785	-0.644409	0.894816	0.85123	0.531196	0	0	-0.0670404	-0.28695	0.362568	0.636519	1.09128	0	0
0.69	2.82483	1.37653	-1.15015	0.7636	-0.0366735	0.948815	0.323529	-0.0510754	-0.164613	0.696497	-0.253007	0	0	-0.323476	-0.0387984	-0.123964	0.19599	-0.105608	0	0	-0.4273	0.134121	-0.0268302	-0.0454832	-0.6432	0.89313	0.849899	0.528941	0	0	-0.0635382	-0.288285	0.369932	0.633747	1.08799	0	0
0.7	2.82123	1.37954	-1.14769	0.763715	-0.0286674	0.947554	0.322642	-0.0485375	-0.172725	0.647375	-0.241373	0	0	-0.331001	-0.038134	-0.122383	0.19426	-0.0996677	0	0	-0.424439	0.1333	-0.0243173	-0.0466721	-0.642143	0.890916	0.849043	0.527508	0	0	-0.0596728	-0.289004	0.376635	0.630352	1.08468	0	0
0.71	2.7955	1.37412	-1.1224	0.763491	-0.0210684	0.947717	0.3422	-0.0622728	-0.255851	0.673827	-0.236777	0	0	-0.34504	-0.0452808	-0.120787	0.190535	-0.097132	0	0	-0.429417	0.141278	-0.0176001	-0.0463604	-0.642656	0.88952	0.846326	0.52638	0	0	-0.0478125	-0.284504	0.387222	0.616464	1.0813	0	0
0.72	2.81256	1.38511	-1.14161	0.763884	-0.0123797	0.945153	0.310796	-0.0377676	-0.172457	0.529983	-0.225323	0	0	-0.346158	-0.0373965	-0.119971	0.192235	-0.089331	0	0	-0.418561	0.132813	-0.0170878	-0.0520093	-0.640588	0.884268	0.84708	0.527477	0	0	-0.0481538	-0.287987	0.394621	0.616642	1.07669	0	0
0.73	2.8095	1.38673	-1.13944	0.764029	-0.00402551	0.944013	0.301052	-0.0315614	-0.167914	0.468717	-0.2241	0	0	-0.354705	-0.0379399	-0.120329	0.192034	-0.084598	0	0	-0.416855	0.132744	-0.0149033	-0.0533928	-0.639261	0.882406	0.84536	0.529119	0	0	-0.0443443	-0.287977	0.401428	0.611495	1.07308	0	0
0.74	2.81131	1.3875	-1.14154	0.764204	0.00447674	0.942877	0.288597	-0.0253367	-0.161079	0.410305	-0.222522	0	0	-0.364173	-0.0384834	-0.121459	0.192329	-0.0803693	0	0	-0.416079	0.132422	-0.0134533	-0.0557136	-0.638108	0.879038	0.844778	0.529804	0	0	-0.0411035	-0.288358	0.407756	0.607124	1.06945	0	0
0.75	2.8144	1.38798	-1.14432	0.764372	0.0130802	0.941744	0.275497	-0.0196352	-0.151603	0.356703	-0.224184	0	0	-0.37331	-0.0393093	-0.122553	0.194289	-0.0769021	0	0	-0.4155	0.132272	-0.0127517	-0.0582153	-0.637024	0.875736	0.844547	0.530469	0	0	-0.0383069	-0.288903	0.414153	0.603096	1.06576	0	0
0.76	2.81587	1.38865	-1.14505	0.764481	0.0217637	0.940601	0.259996	-0.0135926	-0.134349	0.300547	-0.233089	0	0	-0.381145	-0.0406073	-0.123505	0.198264	-0.0730069	0	0	-0.414428	0.132745	-0.0121135	-0.0612762	-0.636346	0.872206	0.844788	0.531143	0	0	-0.0353604	-0.289049	0.42146	0.598623	1.06133	0	0
0.77	2.80102	1.38347	-1.12858	0.764172	0.0300786	0.940481	0.318077	-0.0344201	-0.231948	0.473835	-0.175273	0	0	-0.392754	-0.0471531	-0.123708	0.20162	-0.0715038	0	0	-0.418983	0.139853	-0.00784002	-0.0649861	-0.637717	0.866225	0.845502	0.530796	0	0	-0.0261641	-0.285251	0.433722	0.587009	1.0566	0	0
0.78	2.80551	1.3845	-1.13052	0.764223	0.0390795	0.939256	0.313015	-0.032666	-0.232903	0.462467	-0.170225	0	0	-0.399374	-0.0489254	-0.12368	0.207789	-0.0689035	0	0	-0.417221	0.140393	-0.0103631	-0.0684109	-0.637441	0.86281	0.847279	0.531159	0	0	-0.0266111	-0.285704	0.43591	0.586027	1.05502	0	0
0.79	2.80732	1.38415	-1.12974	0.764303	0.0481271	0.938236	0.305686	-0.0290487	-0.230727	0.452334	-0.171693	0	0	-0.406552	-0.0520405	-0.124898	0.215275	-0.0659563	0	0	-0.416882	0.142062	-0.0127147	-0.0721108	-0.637708	0.858265	0.850045	0.531399	0	0	-0.0271627	-0.285846	0.436983	0.585163	1.05335	0	0
0.8	2.83002	1.38694	-1.14903	0.764803	0.0578496	0.936369	0.232592	-0.00284583	-0.120233	0.254914	-0.238737	0	0	-0.412554	-0.0514761	-0.126595	0.224333	-0.0594419	0	0	-0.413838	0.138235	-0.0179025	-0.0810304	-0.636729	0.846891	0.857005	0.536002	0	0	-0.0340789	-0.291881	0.437787	0.594877	1.05053	0	0
0.81	2.80477	1.38072	-1.12195	0.764739	0.0665443	0.936701	0.289749	-0.0182899	-0.223659	0.445706	-0.194398	0	0	-0.422974	-0.0611275	-0.127569	0.230586	-0.0612505	0	0	-0.419504	0.1474	-0.0151733	-0.0842629	-0.637052	0.839389	0.857052	0.54193	0	0	-0.028765	-0.286773	0.439152	0.585502	1.0533	0	0
0.82	2.82476	1.38621	-1.13832	0.765411	0.0768239	0.93479	0.243914	0.00131934	-0.140923	0.327278	-0.226944	0	0	-0.425951	-0.0602823	-0.128781	0.240567	-0.0585559	0	0	-0.412512	0.142466	-0.022441	-0.0917386	-0.634253	0.832401	0.860541	0.548743	0	0	-0.0381761	-0.292407	0.435639	0.594355	1.05343	0	0
0.83	2.81753	1.3855	-1.12843	0.765853	0.0865672	0.934265	0.241571	0.00799095	-0.139041	0.341901	-0.236179	0	0	-0.432419	-0.065832	-0.130188	0.248798	-0.0601315	0	0	-0.411743	0.145202	-0.0258552	-0.0943306	-0.632755	0.829173	0.860516	0.550826	0	0	-0.0411914	-0.29284	0.433563	0.59383	1.05323	0	0
0.84	2.78203	1.38104	-1.09042	0.766057	0.0959573	0.934805	0.284188	-0.00144186	-0.225187	0.484412	-0.214533	0	0	-0.438596	-0.0776381	-0.132277	0.258905	-0.0645567	0	0	-0.414027	0.155261	-0.0267176	-0.0943085	-0.631083	0.825969	0.856658	0.556924	0	0	-0.0392738	-0.287121	0.427941	0.583763	1.05655	0	0
0.85	2.77161	1.38182	-1.07598	0.766536	0.106252	0.934269	0.289101	-5.6984e-05	-0.234373	0.516784	-0.199755	0	0	-0.441941	-0.0839729	-0.133213	0.270508	-0.0673544	0	0	-0.410399	0.15838	-0.0323368	-0.09784	-0.629165	0.822778	0.856697	0.560392	0	0	-0.0441131	-0.287414	0.423272	0.583232	1.05698	0	0
0.86	2.77079	1.38804	-1.07133	0.767334	0.117139	0.932937	0.252912	0.0224955	-0.1596	0.407087	-0.242262	0	0	-0.440047	-0.0864938	-0.134555	0.285677	-0.0687288	0	0	-0.401035	0.156308	-0.0414432	-0.102617	-0.625805	0.819058	0.857548	0.567437	0	0	-0.0554236	-0.291014	0.415126	0.589572	1.05945	0	0
0.87	2.75428	1.38757	-1.05101	0.767882	0.127655	0.932864	0.251036	0.0283458	-0.159915	0.413529	-0.258475	0	0	-0.442464	-0.0941979	-0.135035	0.299629	-0.0735158	0	0	-0.397974	0.160553	-0.0461063	-0.105605	-0.624566	0.817946	0.85755	0.57038	0	0	-0.0610851	-0.291659	0.41241	0.590041	1.06403	0	0
0.88	2.73731	1.38774	-1.02993	0.768445	0.138474	0.932803	0.248641	0.0339671	-0.161194	0.421559	-0.273456	0	0	-0.442893	-0.102339	-0.135614	0.316305	-0.0802589	0	0	-0.393763	0.164763	-0.0517809	-0.109151	-0.62322	0.816309	0.857687	0.573316	0	0	-0.0681374	-0.29218	0.407523	0.591523	1.06833	0	0
0.89	2.71828	1.3875	-1.00657	0.769069	0.149456	0.932857	0.245137	0.0400605	-0.16122	0.429253	-0.289374	0	0	-0.441447	-0.111857	-0.136777	0.336738	-0.0895185	0	0	-0.389768	0.169545	-0.0584095	-0.111853	-0.62139	0.815574	0.857023	0.577424	0	0	-0.0763032	-0.292128	0.399155	0.593449	1.07223	0	0
0.9	2.69549	1.3869	-0.980128	0.769748	0.160502	0.933085	0.239603	0.0480839	-0.154279	0.432291	-0.304166	0	0	-0.437597	-0.122339	-0.137621	0.361322	-0.0994428	0	0	-0.385851	0.174828	-0.0642984	-0.113365	-0.619482	0.817487	0.854986	0.582629	0	0	-0.083738	-0.291021	0.390238	0.593377	1.07652	0	0
0.91	2.67304	1.38594	-0.954714	0.770539	0.171781	0.933381	0.23501	0.0563272	-0.145962	0.441608	-0.315267	0	0	-0.432137	-0.133215	-0.137249	0.389319	-0.111243	0	0	-0.381743	0.17982	-0.0698315	-0.115187	-0.617674	0.819357	0.852881	0.587418	0	0	-0.09184	-0.289903	0.380898	0.593187	1.08174	0	0
0.92	2.64567	1.38432	-0.925388	0.771414	0.183135	0.933855	0.22924	0.065878	-0.138733	0.448568	-0.323351	0	0	-0.424493	-0.145145	-0.13507	0.420611	-0.125834	0	0	-0.377571	0.185537	-0.074339	-0.116701	-0.615989	0.821262	0.850278	0.591685	0	0	-0.0998395	-0.288211	0.37148	0.592079	1.08754	0	0
0.93	2.61665	1.38238	-0.895787	0.772478	0.194616	0.934357	0.223959	0.0757374	-0.130445	0.456931	-0.32672	0	0	-0.414376	-0.157449	-0.1319	0.456589	-0.14336	0	0	-0.373104	0.191177	-0.0773777	-0.118911	-0.614927	0.822886	0.848775	0.595134	0	0	-0.108335	-0.286399	0.361291	0.591551	1.09317	0	0
0.94	2.58838	1.38012	-0.868383	0.773733	0.206179	0.934856	0.21728	0.0864614	-0.12376	0.463019	-0.324724	0	0	-0.402094	-0.169514	-0.126731	0.496901	-0.163951	0	0	-0.368669	0.196359	-0.0788746	-0.121932	-0.614779	0.824593	0.848812	0.598015	0	0	-0.1176	-0.284833	0.350217	0.592708	1.09864	0	0
0.95	2.56342	1.37739	-0.845701	0.775149	0.217726	0.935347	0.208972	0.0977855	-0.118363	0.467455	-0.318324	0	0	-0.387698	-0.181007	-0.119735	0.542293	-0.187415	0	0	-0.364925	0.200919	-0.0791158	-0.125124	-0.615871	0.827058	0.851075	0.600969	0	0	-0.127535	-0.283547	0.338484	0.595777	1.10399	0	0
0.96	2.55802	1.36641	-0.840953	0.776593	0.22933	0.936536	0.227754	0.0896612	-0.199296	0.572689	-0.293079	0	0	-0.380609	-0.19691	-0.112953	0.589074	-0.221715	0	0	-0.370953	0.208411	-0.0802705	-0.12815	-0.61925	0.828207	0.85866	0.602406	0	0	-0.140394	-0.283104	0.320941	0.605036	1.11565	0	0
0.97	2.54486	1.36286	-0.833097	0.778197	0.240604	0.937003	0.217686	0.0982709	-0.198873	0.579579	-0.284032	0	0	-0.363784	-0.205144	-0.0984588	0.640806	-0.241911	0	0	-0.369843	0.210726	-0.0773983	-0.133125	-0.622283	0.827054	0.865281	0.602488	0	0	-0.15131	-0.283409	0.311285	0.612292	1.12064	0	0
0.98	2.52951	1.35921	-0.82435	0.779889	0.251619	0.937284	0.206919	0.107181	-0.198632	0.584459	-0.273033	0	0	-0.342742	-0.213657	-0.0850215	0.699673	-0.271259	0	0	-0.369707	0.213488	-0.0735522	-0.138195	-0.62737	0.825035	0.875591	0.602071	0	0	-0.163564	-0.283736	0.298764	0.623016	1.12602	0	0
